<svg height="512" viewBox="0 0 64 64" width="512" xmlns="http://www.w3.org/2000/svg"><path d="m5 53h50a2 2 0 0 1 2 2v2a0 0 0 0 1 0 0h-54a0 0 0 0 1 0 0v-2a2 2 0 0 1 2-2z" fill="#a83020" transform="matrix(-1 0 0 -1 60 110)"/><path d="m57 42v11h-54v-12l9-1 10-8h28l2.8 4z" fill="#de463e"/><path d="m24 36h16v6h-23z" fill="#aad5e8"/><path d="m53 47h4v6h-4z" fill="#fcf05a" transform="matrix(-1 0 0 -1 110 100)"/><path d="m3 45h6v-4.667l-6 .667z" fill="#fcf05a"/><path d="m57 42h-13v-6h8.8z" fill="#aad5e8"/><path d="m29 45h9v2h-9z" fill="#a83020"/><path d="m25 45h2v2h-2z" fill="#a83020"/><path d="m35 26h16v6h-16z" fill="#ffd782" transform="matrix(-1 0 0 -1 86 58)"/><path d="m46 26h2v3h-2z" fill="#ad6327"/><path d="m42 26h2v3h-2z" fill="#ad6327"/><path d="m38 26h2v3h-2z" fill="#ad6327"/><path d="m37 20h16v6h-16z" fill="#d9833b" transform="matrix(-1 0 0 -1 90 46)"/><path d="m48 20h2v3h-2z" fill="#ad6327"/><path d="m44 20h2v3h-2z" fill="#ad6327"/><path d="m40 20h2v3h-2z" fill="#ad6327"/><path d="m21 20h16v6h-16z" fill="#f9bb4b" transform="matrix(-1 0 0 -1 58 46)"/><path d="m32 20h2v3h-2z" fill="#ad6327"/><path d="m28 20h2v3h-2z" fill="#ad6327"/><path d="m24 20h2v3h-2z" fill="#ad6327"/><path d="m26 14h16v6h-16z" fill="#ffd782" transform="matrix(-1 0 0 -1 68 34)"/><path d="m37 14h2v3h-2z" fill="#ad6327"/><path d="m33 14h2v3h-2z" fill="#ad6327"/><path d="m29 14h2v3h-2z" fill="#ad6327"/><path d="m19 26h16v6h-16z" fill="#d9833b" transform="matrix(-1 0 0 -1 54 58)"/><path d="m30 26h2v3h-2z" fill="#ad6327"/><path d="m26 26h2v3h-2z" fill="#ad6327"/><path d="m22 26h2v3h-2z" fill="#ad6327"/><g fill="#87cee9"><path d="m54 29h8v2h-8z"/><path d="m46 15h16v2h-16z"/><path d="m44 11h16v2h-16z"/><path d="m16 32c-7.589 0-14-6.869-14-15a15 15 0 0 1 24.643-11.49c.376.316 2.721 2.432 3.071 2.79l-1.428 1.4c-.272-.277-2.567-2.354-2.93-2.66a13 13 0 0 0 -21.356 9.96c0 7.047 5.495 13 12 13z"/></g><path d="m29 10h-5v-2h4v-4h2v5a1 1 0 0 1 -1 1z" fill="#2d75bb"/><path d="m18 12v-2h-4v-2h-2v2h-3a1 1 0 0 0 -1 1v4a1 1 0 0 0 1 1h7v2h-8v2h4v2h2v-2h3a1 1 0 0 0 1-1v-4a1 1 0 0 0 -1-1h-7v-2z" fill="#55b56a"/><circle cx="43" cy="55" fill="#394d5c" r="6"/><circle cx="17" cy="55" fill="#394d5c" r="6"/></svg>