<?xml version="1.0"?>
<svg xmlns="http://www.w3.org/2000/svg" id="icons" enable-background="new 0 0 64 64" height="512px" viewBox="0 0 64 64" width="512px" class=""><g><path d="m45 19.002c0 .549-.45 1-1 1h-24c-.55 0-1-.451-1-1v-16c0-.551.45-1 1-1h24c.55 0 1 .449 1 1z" fill="#5d9cec" data-original="#5D9CEC" class="active-path" style="fill:#5D9CEC"/><g fill="#434a54"><path d="m45.999 34.055v19.945" data-original="#000000" class=""/><path d="m45.999 55c-.553 0-1-.447-1-1v-19.945c0-.553.447-1 1-1s1 .447 1 1v19.945c0 .553-.447 1-1 1z" data-original="#000000" class=""/><path d="m45.999 54h-5.002" data-original="#000000" class=""/><path d="m45.999 55h-5.002c-.553 0-1-.447-1-1s.447-1 1-1h5.002c.553 0 1 .447 1 1s-.447 1-1 1z" data-original="#000000" class=""/><path d="m18 34.055v19.945" data-original="#000000" class=""/><path d="m18 55c-.553 0-1-.447-1-1v-19.945c0-.553.447-1 1-1s1 .447 1 1v19.945c0 .553-.447 1-1 1z" data-original="#000000" class=""/><path d="m18 54h5.002" data-original="#000000" class=""/><path d="m23.002 55h-5.002c-.553 0-1-.447-1-1s.447-1 1-1h5.002c.553 0 1 .447 1 1s-.447 1-1 1z" data-original="#000000" class=""/></g><path d="m41.001 61.998h-18.002c-.553 0-1-.447-1-1v-12.004c0-.553.447-1 1-1h3.371l.686-1.434c.167-.348.518-.568.902-.568h8.042c.379 0 .726.215.895.553l.724 1.449h3.383c.553 0 1 .447 1 1v12.004c-.001.553-.448 1-1.001 1zm-17.002-2h16.002v-10.004h-3.001c-.379 0-.726-.213-.895-.553l-.724-1.449h-6.794l-.686 1.434c-.166.348-.518.568-.902.568h-3.001v10.004z" fill="#545c66" data-original="#545C66" class=""/><path d="m41 61.002h-18v-7-5.01h4l.959-2h4.041 4l1 2h4v5.01zm-9-2c2.209 0 4-1.791 4-4 0-2.211-1.791-4-4-4-2.211 0-4 1.789-4 4 0 2.209 1.789 4 4 4z" fill="#545c66" data-original="#545C66" class=""/><path d="m32 49.5c-3.032 0-5.5 2.469-5.5 5.5 0 3.033 2.468 5.5 5.5 5.5s5.5-2.467 5.5-5.5c0-3.031-2.468-5.5-5.5-5.5z" fill="#656d78" data-original="#656D78" class="" data-old_color="#656d78" style="fill:#80B9A4"/><circle cx="32" cy="55.002" fill="#5d9cec" r="4" data-original="#5D9CEC" class="active-path" style="fill:#5D9CEC"/><path d="m24.5 5.502c1.106 0 2 .893 2 2 0 1.105-.894 2-2 2-1.094 0-2-.895-2-2 0-1.107.906-2 2-2z" fill="#ffce54" data-original="#FFCE54"/><path d="m30.763 13.348c-.018-.02-.043-.029-.063-.049-.019-.018-.026-.041-.046-.059-.031-.027-.07-.035-.104-.059-.059-.037-.115-.074-.179-.1-.059-.023-.117-.037-.18-.049s-.123-.021-.188-.021-.127.01-.191.021c-.061.012-.119.025-.178.049-.063.025-.118.061-.175.098-.035.023-.076.033-.108.061-.021.018-.029.043-.049.063-.018.018-.042.027-.059.047l-5.702 6.652h6.269l1.968-2.457c.18.143.389.236.609.236.23 0 .462-.08.651-.242.419-.359.467-.99.107-1.41z" fill="#545c66" data-original="#545C66" class=""/><path d="m9.003 31.051c-.553 0-1-.447-1-1v-5.998c0-.553.447-1 1-1s1 .447 1 1v5.998c0 .553-.447 1-1 1z" fill="#545c66" data-original="#545C66" class=""/><path d="m54.997 31.051c-.553 0-1-.447-1-1v-5.998c0-.553.447-1 1-1s1 .447 1 1v5.998c0 .553-.447 1-1 1z" fill="#545c66" data-original="#545C66" class=""/><path d="m40.78 30.055h18.22v4h-18v-2c0-.69-.08-1.36-.22-2z" fill="#ccd1d9" data-original="#CCD1D9" class=""/><path d="m32 29.055c1.65 0 3 1.35 3 3 0 1.66-1.35 3-3 3-1.66 0-3-1.34-3-3 0-1.651 1.34-3 3-3z" fill="#5d9cec" data-original="#5D9CEC" class="active-path" style="fill:#5D9CEC"/><path d="m41 34.055v1c0 4.971-4.03 9-9 9s-9-4.029-9-9v-1-2c0 4.971 4.03 9 9 9s9-4.029 9-9z" fill="#ccd1d9" data-original="#CCD1D9" class=""/><path d="m40.78 30.055c.14.641.22 1.311.22 2 0 4.971-4.03 9-9 9s-9-4.029-9-9c0-.689.08-1.359.22-2 .91-4.01 4.5-7 8.78-7s7.87 2.99 8.78 7zm-5.78 2c0-1.65-1.35-3-3-3-1.66 0-3 1.35-3 3 0 1.66 1.34 3 3 3 1.65 0 3-1.34 3-3z" fill="#e6e9ed" data-original="#E6E9ED" class="" style="fill:#E6E9ED"/><path d="m23 32.055v2h-18v-4h18.22c-.14.64-.22 1.31-.22 2z" fill="#ccd1d9" data-original="#CCD1D9" class=""/><path d="m17.006 26.053h-16.006c-.553 0-1-.447-1-1s.447-1 1-1h16.006c.553 0 1 .447 1 1s-.447 1-1 1z" fill="#656d78" data-original="#656D78" class="" data-old_color="#656d78" style="fill:#80B9A4"/><path d="m63 26.053h-16.006c-.553 0-1-.447-1-1s.447-1 1-1h16.006c.553 0 1 .447 1 1s-.447 1-1 1z" fill="#656d78" data-original="#656D78" class="" data-old_color="#656d78" style="fill:#80B9A4"/><path d="m59.001 34.053c-.553 0-1-.447-1-1v-1.996c0-.553.447-1 1-1s1 .447 1 1v1.996c0 .552-.447 1-1 1z" fill="#ccd1d9" data-original="#CCD1D9" class=""/><path d="m4.999 34.053c-.553 0-1-.447-1-1v-1.996c0-.553.447-1 1-1s1 .447 1 1v1.996c0 .552-.447 1-1 1z" fill="#ccd1d9" data-original="#CCD1D9" class=""/><path d="m44 20.002c.436 0 .798-.287.935-.678l-7.149-8.949c-.026-.031-.063-.049-.092-.076-.025-.025-.039-.059-.067-.08-.022-.018-.05-.023-.073-.039-.061-.039-.121-.07-.188-.096-.058-.023-.112-.043-.172-.055-.064-.012-.126-.014-.19-.014s-.126.002-.189.014c-.061.012-.116.031-.174.055-.065.025-.126.057-.186.096-.024.016-.052.02-.074.039-.028.021-.042.055-.067.08-.029.027-.065.045-.092.076l-7.691 9.627z" fill="#656d78" data-original="#656D78" class="" data-old_color="#656d78" style="fill:#80B9A4"/></g> </svg>
