<svg height="512pt" viewBox="0 0 512 512" width="512pt" xmlns="http://www.w3.org/2000/svg" xmlns:xlink="http://www.w3.org/1999/xlink"><linearGradient id="linear0" gradientUnits="userSpaceOnUse" x1="255.9999974229" x2="255.9999974229" y1="-.0005010395" y2="511.9603297214"><stop offset="0" stop-color="#2af598"/><stop offset="1" stop-color="#009efd"/></linearGradient><path d="m455.335938 280.148438c-25.421876-19.335938-45.503907-34.609376-45.503907-76.691407v-20.035156h-29.257812l-5.5 3.480469c-49.863281 31.519531-133.515625 98.066406-133.515625 189.636718 0 74.671876 60.660156 135.421876 135.21875 135.421876 74.5625 0 135.222656-60.75 135.222656-135.421876 0-53.289062-31.417969-77.1875-56.664062-96.390624zm-106.78125 163.699218c0-12.035156 10.964843-30.777344 21.808593-45.800781 5.769531 8.585937 12.761719 15.296875 18.730469 21.019531 11.542969 11.074219 15.90625 16.082032 15.90625 24.78125 0 15.464844-12.660156 28.046875-28.222656 28.046875-15.558594 0-28.222656-12.582031-28.222656-28.046875zm96.492187-.957031c-.371094-26.007813-15.792969-40.816406-28.21875-52.738281-11.835937-11.351563-18.011719-17.863282-18.011719-30.40625v-20.035156h-29.210937l-5.542969 4.554687c-6.1875 5.082031-19.714844 20.648437-30.78125 36.9375-16.152344 23.777344-24.46875 44.523437-24.761719 61.699219-16.636719-17.179688-26.894531-40.589844-26.894531-66.363282 0-60.5 50.300781-109.765624 91.863281-140.140624 9.546875 39.09375 35.710938 58.996093 57.589844 75.640624 23.71875 18.039063 40.855469 31.074219 40.855469 64.5 0 25.765626-10.253906 49.175782-26.886719 66.351563zm-215.351563 29.003906h-27.203124v40.066407h-40.0625v-40.066407h-162.429688l72.867188-129.210937h-45.75l73.417968-124.203125h-40.742187l129.953125-218.480469 108.960937 188.339844c-21.285156 17.867187-39.402343 36.734375-54.167969 56.34375l-40.398437-67.941406h41.050781l-55.445312-98.367188-59.503906 100.039062h40.515624l-73.417968 124.203126h44.121094l-72.871094 129.210937h141.824218c4.738282 14.253906 11.253907 27.695313 19.28125 40.066406zm0 0" fill="url(#linear0)"/></svg>