<?xml version="1.0"?>
<svg xmlns="http://www.w3.org/2000/svg" height="512px" viewBox="0 0 58 59" width="512px" class=""><g><g id="021---Mountain-Rescue" fill="none" transform="translate(-1)"><path id="Shape" d="m34.83 33.62-1.9 3c-.1900052.2256943-.4699748.3559697-.765.3559697s-.5749948-.1302754-.765-.3559697l-.64-.62c-.1899799-.2292703-.4722463-.3619561-.77-.3619561s-.5800201.1326858-.77.3619561l-.54.58c-.2021264.2499469-.512084.3874905-.8330367.3696598-.3209526-.0178307-.6137672-.1888616-.7869633-.4596598l-1.7-3.27 3.74-6.68c.1670864-.3449903.5166774-.5641101.9-.5641101s.7329136.2191198.9.5641101z" fill="#ecf0f1" data-original="#ECF0F1" class=""/><path id="Shape" d="m58 59h-26l-13-14.42 6.36-11.38 1.7 2.27c.1731961.2707982.4660107.4418291.7869633.4596598.3209527.0178307.6309103-.1197129.8330367-.3696598l.54-.58c.1899799-.2292703.4722463-.3619561.77-.3619561s.5800201.1326858.77.3619561l.64.68c.1900052.2256943.4699748.3559697.765.3559697s.5749948-.1302754.765-.3559697l1.9-2c10.87 19.64 3.83 7 6.31 11.4 1.58-2 1.1-1.38 2.23-2.84.1990803-.2843729.5313946-.4451592.8779279-.4247749.3465334.0203843.6577051.2190227.8220721.5247749l6.66 11.38c.1685097.2883813.4698719.4735935.8032724.4936779.3334006.0200844.6548174-.127611.8567276-.3936779l1.16-1.52c.2042911-.2950331.5510073-.4579802.9085244-.4269816s.6710132.2511896.8214756.5769816l2.61 5.12c.1559692.3095182.1405453.6777279-.0407631.9731178-.1813083.29539-.5026437.4758333-.8492369.4768822z" fill="#95a5a5" data-original="#95A5A5" class=""/><path id="Shape" d="m46 51.82c-.23204.1287454-.5057375.1599832-.7608202.0868345s-.4706317-.2446852-.5991798-.4768345l-3.5-6.43 1.32-1.69c.1.1-.1-.25 4 7.13.1302033.2425479.1546603.5280432.0676073.7892024-.0870531.2611592-.2779159.4748813-.5276073.5907976z" fill="#7f8c8d" data-original="#7F8C8D"/><path id="Shape" d="m17 9c-.5522847 0-1-.44771525-1-1v-7c0-.55228475.4477153-1 1-1s1 .44771525 1 1v7c0 .55228475-.4477153 1-1 1z" fill="#a5a5a4" data-original="#A5A5A4"/><path id="Shape" d="m33 3c0 .55228475-.4477153 1-1 1h-30c-.55228475 0-1-.44771525-1-1s.44771525-1 1-1h30c.5522847 0 1 .44771525 1 1z" fill="#7f8284" data-original="#7F8284"/><path id="Shape" d="m32 59.0001522-30-.0001522c-.35422662.0061696-.6852768-.175546-.87026565-.4776945s-.19629984-.6796228-.02973435-.9923055l2.6-5.1c.15046238-.325792.4639585-.545983.82147559-.5769816s.70423326.1319485.90852441.4269816l1.18 1.52c.20191019.2660669.52332703.4137623.85672758.3936779.33340056-.0200844.63476273-.2052966.80327242-.4936779.18-.31 1.55-2.7 6.73-11.53.1575089-.289434.4474935-.4826951.7752537-.5166702.3277602-.0339752.6512196.0956972.8647463.3466702 1.41 1.57-5.16-5.7 15.36 17.0001522z" fill="#bdc3c7" data-original="#BDC3C7"/><path id="Shape" d="m13 37c-.5522847 0-1-.4477153-1-1v-15c0-.5522847.4477153-1 1-1s1 .4477153 1 1v15c0 .5522847-.4477153 1-1 1z" fill="#bdc3c7" data-original="#BDC3C7"/><path id="Shape" d="m47.2 2h-1.15c-.3627885-.00020102-.6814649.24084904-.78.59l-1.27 4.82c-.0914889.34964744-.4085907.59262153-.77.59h-32.23c-.44 4-.33 2.95-.5 4.59.0053245.635596-.2427535 1.2471323-.68937983 1.6993884-.44662635.4522561-1.05500731.7079744-1.69062017.7106116-7.55 1.08-7 1-7.07 1s0 0 0 0c-.03188876.3023051-.04857644.6060209-.05.91-.02450932 1.0851021.39299018 2.1335788 1.15668832 2.9048196.76369815.7712409 1.80802111 1.1990244 2.89331168 1.1851804h13.78c4.0022633.042267 7.4198626-2.8797805 8-6.84.0138774-.09219.0373378-.1826801.07-.27.188211-.6250906.7312171-1.0775957 1.38-1.15l18.24-1.38c.8364789-.0629098 1.4823623-.7611621 1.48-1.6v-7c-.021333-.42613348-.3733332-.76053365-.8-.76z" fill="#e64c3c" data-original="#E64C3C" class="active-path" data-old_color="#e64c3c" style="fill:#1C82AA"/><path id="Shape" d="m11.000084 8-.000084 5.59c.0053245.635596-.2427535 1.2471323-.6893798 1.6993884-.44662638.4522561-1.05500734.7079744-1.6906202.7106116-5.53 0-7.46 0-7.57 0 .46646012-4.5433289 4.29278866-7.99825309 8.86-8z" fill="#2c2f38" data-original="#2C2F38"/><path id="Shape" d="m18 26c-.5522847 0-1-.4477153-1-1v-4c0-.5522847.4477153-1 1-1s1 .4477153 1 1v4c0 .5522847-.4477153 1-1 1z" fill="#f0c419" data-original="#F0C419"/><path id="Shape" d="m9 26c-.55228475 0-1-.4477153-1-1v-4c0-.5522847.44771525-1 1-1s1 .4477153 1 1v4c0 .5522847-.44771525 1-1 1z" fill="#f0c419" data-original="#F0C419"/><path id="Shape" d="m22 26h-17c-.55228475 0-1-.4477153-1-1s.44771525-1 1-1h17c.5522847 0 1 .4477153 1 1s-.4477153 1-1 1z" fill="#f3d55b" data-original="#F3D55B"/><g fill="#ecf0f1"><path id="Shape" d="m18 17c-.5522847 0-1-.4477153-1-1v-4c0-.5522847.4477153-1 1-1s1 .4477153 1 1v4c0 .5522847-.4477153 1-1 1z" data-original="#000000" class="" style="fill:#E4E7EB" data-old_color="#000000"/><path id="Shape" d="m20 15h-4c-.5522847 0-1-.4477153-1-1s.4477153-1 1-1h4c.5522847 0 1 .4477153 1 1s-.4477153 1-1 1z" data-original="#000000" class="" style="fill:#E4E7EB" data-old_color="#000000"/></g></g></g> </svg>
