<svg height="512" viewBox="0 0 64 64" width="512" xmlns="http://www.w3.org/2000/svg" xmlns:xlink="http://www.w3.org/1999/xlink"><linearGradient id="New_Gradient_Swatch_3" gradientUnits="userSpaceOnUse" x1="32" x2="32" y1="64.14" y2="2.75"><stop offset="0" stop-color="#006df0"/><stop offset="1" stop-color="#00e7f0"/></linearGradient><linearGradient id="New_Gradient_Swatch_3-2" x1="54" x2="54" xlink:href="#New_Gradient_Swatch_3" y1="64.14" y2="2.75"/><linearGradient id="New_Gradient_Swatch_3-4" x1="52" x2="52" xlink:href="#New_Gradient_Swatch_3" y1="64.14" y2="2.75"/><linearGradient id="New_Gradient_Swatch_3-5" x1="56" x2="56" xlink:href="#New_Gradient_Swatch_3" y1="64.14" y2="2.75"/><linearGradient id="New_Gradient_Swatch_3-12" x1="27" x2="27" xlink:href="#New_Gradient_Swatch_3" y1="64.14" y2="2.75"/><g id="Retro_televition" data-name="Retro televition"><path d="m59 18h-22a3 3 0 0 0 -3-3h-3.627l17.172-11.162a1 1 0 0 0 -1.09-1.676l-19.414 12.619-11.441-8.581a1 1 0 1 0 -1.2 1.6l9.6 7.2h-4a3 3 0 0 0 -3 3h-12a3 3 0 0 0 -3 3v34a3 3 0 0 0 3 3h2v1a3 3 0 0 0 3 3h2a3 3 0 0 0 3-3v-1h34v1a3 3 0 0 0 3 3h2a3 3 0 0 0 3-3v-1h2a3 3 0 0 0 3-3v-34a3 3 0 0 0 -3-3zm-39-1h14a1 1 0 0 1 1 1h-16a1 1 0 0 1 1-1zm-7 42a1 1 0 0 1 -1 1h-2a1 1 0 0 1 -1-1v-1h4zm42 0a1 1 0 0 1 -1 1h-2a1 1 0 0 1 -1-1v-1h4zm5-4a1 1 0 0 1 -1 1h-54a1 1 0 0 1 -1-1v-34a1 1 0 0 1 1-1h54a1 1 0 0 1 1 1z" fill="url(#New_Gradient_Swatch_3)"/><path d="m54 45a3 3 0 0 0 -2.816 2h-1.184v2h1.184a2.982 2.982 0 0 0 5.632 0h1.184v-2h-1.184a3 3 0 0 0 -2.816-2zm0 4a1 1 0 1 1 1-1 1 1 0 0 1 -1 1z" fill="url(#New_Gradient_Swatch_3-2)"/><path d="m54 37a3 3 0 0 0 -2.816 2h-1.184v2h1.184a2.982 2.982 0 0 0 5.632 0h1.184v-2h-1.184a3 3 0 0 0 -2.816-2zm0 4a1 1 0 1 1 1-1 1 1 0 0 1 -1 1z" fill="url(#New_Gradient_Swatch_3-2)"/><path d="m51 30h2v2h-2z" fill="url(#New_Gradient_Swatch_3-4)"/><path d="m55 30h2v2h-2z" fill="url(#New_Gradient_Swatch_3-5)"/><path d="m51 33h2v2h-2z" fill="url(#New_Gradient_Swatch_3-4)"/><path d="m55 33h2v2h-2z" fill="url(#New_Gradient_Swatch_3-5)"/><path d="m51 27h2v2h-2z" fill="url(#New_Gradient_Swatch_3-4)"/><path d="m55 27h2v2h-2z" fill="url(#New_Gradient_Swatch_3-5)"/><path d="m51 24h2v2h-2z" fill="url(#New_Gradient_Swatch_3-4)"/><path d="m55 24h2v2h-2z" fill="url(#New_Gradient_Swatch_3-5)"/><path d="m45 22h-36a3 3 0 0 0 -3 3v26a3 3 0 0 0 3 3h36a3 3 0 0 0 3-3v-26a3 3 0 0 0 -3-3zm1 29a1 1 0 0 1 -1 1h-36a1 1 0 0 1 -1-1v-26a1 1 0 0 1 1-1h36a1 1 0 0 1 1 1z" fill="url(#New_Gradient_Swatch_3-12)"/></g></svg>